<?xml version="1.0" encoding="utf-8"?>
<!-- Generator: Adobe Illustrator 27.3.1, SVG Export Plug-In . SVG Version: 6.00 Build 0)  -->
<svg version="1.1" id="Layer_1" xmlns="http://www.w3.org/2000/svg" xmlns:xlink="http://www.w3.org/1999/xlink" x="0px" y="0px"
	 viewBox="0 0 119.3 85.9" style="enable-background:new 0 0 119.3 85.9;" xml:space="preserve">
<style type="text/css">
	.st0{fill:#FFFFFF;}
</style>
<path class="st0" d="M27.6,69.2c2.3-0.3,4.2-0.5,6-0.7c-0.8-3-1.7-5.9-2.3-8.9c-1.5-7.7-2.9-15.4-4.3-23.1c-0.5-2.7-0.9-3.1-3.7-3.1
	c-1.5,0-3,0.2-4.5,0.3c0,0.1-0.1,0.2-0.1,0.3c1,0.5,2,1.1,3.1,1.6c2.1,1.1,2.1,1.1,0.3,2.6c-2.3,1.9-4.9,3.3-8,3.3
	c-3.4,0-6-1.7-8.3-3.9c-3.1-3-5.2-6.5-5.7-10.9c-0.3-2.9,0.2-5.7,1.1-8.3c1.5-4.1,3.8-7.8,6.5-11.2c0.2-0.3,0.6-0.4,1-0.5
	C8.8,7,9.1,7.4,9.1,7.8c-0.3,3-0.7,5.9-1.1,8.9c-0.6,4.3,0.4,8.4,2,12.4c1.2,3.1,3.5,4.5,6.2,4.2c-0.8-1.4-1.7-2.7-2.3-4.2
	c-0.5-1-0.7-2.2-0.9-3.3c-0.2-1.5,0.2-1.9,1.8-2.3c2.7-0.5,5.4-1.1,8.1-1.5c5.3-0.7,10.5-1.4,15.8-1.8c3.5-0.3,7-0.3,10.5-0.2
	c6.3,0.1,12.6,0.2,18.9,0.4c0.2,0,0.3,0,0.5,0.1v7.2c-2,0.2-3.8,0.4-5.7,0.5c-0.4,0-0.8,0.2-1.2,0.2c-2.3,0.5-3.7,1.7-3.9,4.2
	c-0.1,1.8-0.5,3.7-0.5,5.5c0.1,9.7,0.2,19.4,0.3,29.2h7.7c0.2,2.7,0.6,5.3-0.6,7.8c-0.8,1.7-2.4,2.1-4,2.2
	c-6.3,0.2-12.6,0.3-18.9,0.4c-3.2,0-6.5-0.4-9.7-0.5c-1.8-0.1-3-0.9-3.5-2.5C28.2,72.9,28,71.1,27.6,69.2L27.6,69.2z M21.5,36.9
	c-0.7-0.4-1.3-0.7-2-1c-1-0.4-1.9-1.1-2.9-1.2c-4.4-0.2-6.6-1.8-8.1-5.9c-1.8-5-2.3-10.1-1.4-15.4c0.2-1,0.3-2.1,0.4-3.5
	C4.7,13,2,18.8,1.5,22.6c-0.4,2.5-0.3,4.9,0.6,7.3c1.3,3.6,3.7,6.5,6.7,8.7C13.1,41.7,18,40.5,21.5,36.9L21.5,36.9z"/>
<path class="st0" d="M108,69.5c0.2,1.6,0.5,3.2,0.6,4.7c0.1,0.8-0.2,1.7-0.4,2.5c-0.6,2.3-1.3,4.5-1.8,6.8c-0.5,2.1-0.4,2.1-2.4,2.3
	c-1,0.1-1.9,0.1-2.9,0.1c-0.9,0-1.3-0.4-1.2-1.4c0.3-2.8,0.6-5.6,0.8-8.3c0.1-1.5,0-3.1-0.2-4.7c-0.4,0.8-0.7,1.6-1.1,2.4
	c-0.4,0.8-1,1.5-2.1,1.4c-1-0.1-1.6-0.8-2-1.7c-0.2-0.4-0.2-0.9-0.4-1.4c-0.1-0.3-0.3-0.8-0.5-0.8c-0.3,0-0.8,0.2-0.9,0.5
	c-0.8,1.3-1.8,2.4-3.2,3.2c-0.9,0.5-1.8,1.2-2.8,1.5c-2.1,0.5-3.3,2-4.7,3.4c-1.5,1.5-2.9,3.2-4.4,4.7c-0.5,0.5-1.3,0.8-2,0.9
	c-1.5,0.1-3,0.1-4.6,0c-1.1,0-1.5-0.5-1.4-1.6c0.2-1.5,0.6-3,0.8-4.5c0.1-0.5-0.2-1.1-0.3-1.6c-0.3-1.3-0.9-2.6-0.8-3.8
	c0.2-4.1,0.7-8.2,1.1-12.3c0.7-6.5,1.5-13.1,1.9-19.6c0.1-2.1,0.3-3.3,2.6-4.1c4.7-1.6,7.8-5,9.9-9.5c0.4-0.8,0.6-1.7,0.7-2.6
	c0.2-3.7-0.3-7.2-1.3-10.7c-0.2-0.6-0.2-1.2-0.4-1.8c0.1-0.1,0.2-0.1,0.3-0.2c1.1,1.3,2.2,2.5,3.3,3.8c8.3,10,13.5,21.5,16,34.2
	c0.9,4.4,1.8,8.7,2.7,13.1c0.2,0.9,0.6,1.2,1.4,1.3c2.6,0.4,4.3-0.8,4.8-3.4c0.3-1.8,0.6-3.5,0.9-5.3c0.3-2.7-0.6-5-2.1-7
	c-1.2-1.6-2.9-1.6-5.5-0.9c-0.5,0.1-1,0.1-1.5,0c-0.1,0-0.3-0.8-0.2-0.9c0.3-0.4,0.8-0.6,1.2-0.9c0.6-0.4,1.4-0.8,1.6-1.3
	c1.2-3.3,1.7-6.6,0.4-10c-0.5-1.2-1.1-2.2-1.6-3.4c-0.1-0.4-0.1-1,0.2-1.3c0.2-0.3,0.8-0.5,1.1-0.5c0.3,0.1,0.7,0.5,0.8,0.9
	c0.4,1.4,0.7,2.9,1.1,4.3c0.2,0.8,0.6,1.7,1,2.4c1.6,2.8,4.3,3.5,7.1,1.9c0.3-0.2,0.8-0.2,1.2-0.2c0.1,0,0.4,0.5,0.3,0.7
	c-0.2,0.3-0.5,0.7-0.9,0.8c-3.8,1.3-5.3,4.9-4,8.8c0.7,2.2,1.9,4.3,1.8,6.8c-0.2,4.4-1.6,8.3-4,12c-0.6,1-1.5,1.3-2.6,0.9
	C109.1,69.9,108.6,69.8,108,69.5L108,69.5z M112.6,48c0.1-0.6,0.1-1.1,0.1-1.5c0.1-0.5,0.2-1,0.3-1.5c0.6-2.1,0.6-2.1-1.3-3
	c-0.3-0.2-0.6-0.3-0.9-0.4c-0.6,1.8,0.7,3.9-1.3,5.4C110.6,47.3,111.6,47.6,112.6,48L112.6,48z"/>
<path class="st0" d="M68.4,16.8c-12.3,0.2-24.5,0.4-36.8,0.6c0.5-3.3,1.5-6.4,3.7-8.7C37.8,6,40.7,4,44.3,3.2
	C50.2,1.9,56,1.7,61.6,4.3c1.1,0.5,2.1,1.2,3.1,1.8c2.4,1.6,3.9,3.8,3.6,6.9C68.1,14.2,68.3,15.4,68.4,16.8z"/>
<path class="st0" d="M84.5,23.1c0.2,5.4-4.2,11.8-9.5,13.4c-2.3,0.7-4.7,1-7,1.5c-0.8,0.2-1.4-0.1-1.9-0.8c-0.9-1.1-1.8-2.2-2.7-3.4
	c-0.8-1-0.7-1.5,0.6-1.8c4-1.1,6.8-3.5,7.8-7.6c0.8-3.2,0.4-6.5-0.5-9.6c-1.2-4.5-2.7-8.9-4.1-13.4c-0.1-0.4,0-0.9,0-1.4
	c0.4,0.2,1,0.2,1.3,0.5c4.7,3.8,9.1,7.9,12.4,13C83,16.4,84.4,19.5,84.5,23.1z M69.4,2.6l-0.3,0.2c0.5,1.5,1.1,3,1.6,4.6
	c1.4,4.8,3,9.6,2.8,14.7c-0.2,4.2-2.1,7.6-5.8,9.7c-0.9,0.5-2,0.9-3,1.4c3.1,4,1.8,3.8,6.9,3c0.2,0,0.4-0.1,0.6-0.1
	c8.6-1.8,13.9-10.9,9.4-19.4c-1.7-3.2-3.9-6.1-6.5-8.7C73.3,6.1,71.3,4.4,69.4,2.6L69.4,2.6z"/>
<path class="st0" d="M45,78.9c0.9-0.1,1.8-0.1,2.8-0.2c0.7-0.1,1,0.3,1.1,0.9c0.2,1.5,0.5,1.7,2,1.6c0.1,0,0.2,0,0.2,0
	c0.7,0,1.6-0.6,2.1,0.5c0.4,1.1-0.1,2.5-1,3.1c-2.1,1.4-6.2,1.2-8.7-0.6c-1-0.7-1.8-1.8-2.3-2.9c-0.8-1.7-0.3-2.3,1.6-2.4
	C43.5,79,44.2,79,45,78.9C45,79,45,78.9,45,78.9L45,78.9z"/>
<path class="st0" d="M61.5,47c0.2-1.2,0.3-2.4,0.6-3.5c0.4-1.5,2-2.7,3.2-2.6c1.5,0.1,2.8,1.2,3.1,2.8c0.3,1.8,0.5,3.5,0.6,5.3
	c0.1,2.1-1.7,4-3.8,3.9c-0.8,0-1.8-0.8-2.4-1.4C61.6,50.3,61.5,48.7,61.5,47L61.5,47z M67.6,47.6c-0.1,0-0.2-0.1-0.3-0.1
	c0-1.4-0.2-2.8-1.2-3.9c-0.3-0.3-0.9-0.7-1.3-0.5c-0.4,0.2-0.9,0.7-1,1.2c-0.2,1.2-0.2,2.5-0.1,3.8c0,0.8,0.3,1.7,0.6,2.5
	c0.4,1,1.2,1.2,1.8,0.3C66.8,49.9,67.2,48.7,67.6,47.6L67.6,47.6z"/>
</svg>
