<?xml version="1.0" encoding="UTF-8"?>
<svg id="Layer_1" data-name="Layer 1" xmlns="http://www.w3.org/2000/svg" viewBox="0 0 119.26 85.89">
  <path d="m27.64,69.22c2.28-.28,4.17-.51,6.04-.74-.8-3.03-1.72-5.92-2.31-8.86-1.52-7.69-2.91-15.41-4.32-23.13-.49-2.71-.86-3.11-3.67-3.09-1.51,0-3.01.17-4.52.27-.04.11-.08.23-.13.34,1.02.53,2.04,1.07,3.06,1.6,2.12,1.1,2.12,1.12.27,2.64-2.33,1.92-4.86,3.33-7.99,3.34-3.4.01-6.03-1.67-8.33-3.91C2.69,34.68.53,31.18.08,26.77c-.29-2.89.21-5.66,1.15-8.34,1.46-4.14,3.82-7.79,6.5-11.25.21-.27.63-.37.95-.54.13.38.41.77.37,1.13-.33,2.97-.67,5.94-1.09,8.91-.62,4.34.45,8.42,1.97,12.39,1.19,3.1,3.51,4.51,6.18,4.18-.79-1.39-1.69-2.74-2.34-4.2-.46-1.03-.73-2.19-.86-3.32-.17-1.54.17-1.94,1.79-2.26,2.69-.54,5.39-1.09,8.11-1.45,5.26-.69,10.52-1.38,15.8-1.83,3.49-.3,7.02-.29,10.53-.25,6.31.06,12.61.24,18.92.38.15,0,.31.04.49.07v7.24c-1.97.19-3.83.35-5.68.54-.39.04-.78.17-1.17.25-2.26.48-3.72,1.68-3.88,4.15-.12,1.83-.5,3.65-.49,5.47.07,9.69.23,19.38.35,29.2h7.71c.25,2.74.59,5.34-.61,7.84-.8,1.68-2.44,2.11-4.01,2.17-6.3.22-12.6.35-18.89.36-3.23,0-6.45-.39-9.68-.49-1.81-.06-3.01-.89-3.49-2.54-.49-1.69-.71-3.46-1.08-5.33Zm-6.13-32.33c-.68-.36-1.33-.74-2.02-1.05-.97-.44-1.94-1.13-2.94-1.18-4.36-.23-6.65-1.84-8.13-5.94-1.81-5.02-2.33-10.15-1.36-15.42.19-1.04.26-2.11.42-3.49-2.74,3.19-5.48,8.94-6.02,12.77-.35,2.46-.27,4.92.6,7.31,1.31,3.62,3.65,6.45,6.72,8.66,4.31,3.11,9.25,1.98,12.75-1.66Z"/>
  <path d="m107.98,69.54c.23,1.64.53,3.17.62,4.71.05.82-.21,1.67-.43,2.49-.59,2.26-1.33,4.49-1.83,6.77-.46,2.09-.36,2.13-2.45,2.27-.96.06-1.91.12-2.87.11-.86,0-1.29-.38-1.18-1.36.32-2.77.61-5.55.81-8.33.11-1.53.02-3.08-.22-4.66-.38.82-.73,1.64-1.14,2.44-.42.82-1.04,1.46-2.05,1.39-1.04-.07-1.63-.77-2-1.66-.18-.44-.22-.93-.4-1.38-.12-.31-.35-.81-.54-.81-.32,0-.78.23-.95.51-.8,1.32-1.77,2.45-3.16,3.18-.95.5-1.84,1.23-2.85,1.48-2.05.51-3.31,2-4.66,3.37-1.51,1.53-2.88,3.21-4.41,4.72-.48.48-1.28.81-1.97.87-1.51.13-3.03.05-4.55.02-1.12-.02-1.53-.47-1.37-1.58.22-1.5.59-2.98.78-4.48.07-.52-.16-1.09-.28-1.63-.28-1.27-.88-2.55-.8-3.8.25-4.1.73-8.18,1.14-12.27.66-6.55,1.49-13.09,1.94-19.65.14-2.09.33-3.3,2.62-4.09,4.65-1.61,7.85-5.05,9.92-9.49.38-.81.64-1.73.7-2.61.24-3.66-.33-7.23-1.35-10.74-.17-.58-.24-1.19-.36-1.79.11-.06.22-.11.32-.17,1.11,1.28,2.24,2.53,3.32,3.83,8.31,10.01,13.54,21.46,16.04,34.19.86,4.38,1.83,8.74,2.68,13.12.17.87.6,1.18,1.4,1.31,2.59.41,4.32-.76,4.84-3.37.35-1.75.64-3.52.88-5.3.35-2.65-.6-4.97-2.13-7.03-1.18-1.6-2.93-1.59-5.51-.93-.49.12-1.03.14-1.52.05-.13-.02-.34-.75-.21-.91.31-.39.8-.63,1.21-.94.56-.43,1.42-.77,1.63-1.34,1.22-3.28,1.73-6.64.38-10.03-.46-1.16-1.11-2.24-1.56-3.41-.14-.37-.05-.97.17-1.32.19-.29.75-.55,1.08-.48.32.06.69.51.8.87.42,1.41.71,2.86,1.13,4.27.25.83.58,1.66,1,2.42,1.56,2.83,4.32,3.52,7.1,1.87.32-.19.8-.2,1.19-.15.14.02.38.55.3.68-.21.33-.53.68-.88.81-3.85,1.35-5.35,4.9-4.01,8.83.74,2.19,1.93,4.28,1.79,6.75-.25,4.37-1.59,8.35-3.97,12-.62.96-1.5,1.27-2.59.93-.48-.15-.96-.33-1.58-.54Zm4.66-21.55c.05-.61.07-1.09.14-1.55.07-.51.16-1.02.3-1.52.56-2.06.57-2.06-1.34-3.02-.31-.15-.62-.29-.94-.44-.61,1.82.74,3.94-1.26,5.42,1.09.39,2.01.73,3.1,1.12Z"/>
  <path d="m68.37,16.79c-12.3.2-24.49.39-36.82.59.5-3.33,1.48-6.36,3.72-8.74,2.49-2.63,5.45-4.64,9.07-5.43,5.83-1.28,11.62-1.48,17.21,1.06,1.08.49,2.07,1.19,3.06,1.85,2.43,1.64,3.86,3.79,3.62,6.88-.09,1.18.08,2.38.14,3.79Z"/>
  <path d="m84.52,23.07c.2,5.44-4.21,11.75-9.53,13.37-2.27.69-4.65.99-6.98,1.48-.8.17-1.37-.12-1.86-.76-.87-1.14-1.79-2.25-2.67-3.38-.82-1.05-.7-1.45.6-1.81,4-1.12,6.75-3.52,7.83-7.61.85-3.23.39-6.46-.47-9.58-1.23-4.49-2.74-8.91-4.09-13.37-.13-.43.02-.94.03-1.41.45.15.99.19,1.33.47,4.66,3.85,9.09,7.93,12.43,13.03,1.91,2.9,3.3,6.01,3.38,9.57Zm-15.09-20.49l-.27.19c.53,1.53,1.12,3.03,1.57,4.58,1.4,4.82,3.03,9.61,2.76,14.73-.23,4.23-2.06,7.57-5.79,9.72-.94.54-1.98.93-2.99,1.39,3.1,3.96,1.77,3.81,6.86,2.97.2-.03.4-.06.59-.1,8.59-1.79,13.93-10.94,9.41-19.35-1.74-3.23-3.94-6.09-6.46-8.71-1.82-1.89-3.78-3.63-5.68-5.43Z"/>
  <path d="m44.98,78.92c.92-.05,1.83-.1,2.75-.16.7-.05.99.27,1.09.95.22,1.49.52,1.71,2.03,1.63.08,0,.16-.01.24-.02.74-.04,1.64-.57,2.06.54.4,1.05-.08,2.47-.99,3.09-2.09,1.42-6.24,1.24-8.72-.62-.97-.72-1.78-1.84-2.29-2.95-.8-1.74-.33-2.3,1.57-2.36.76-.03,1.52,0,2.27,0,0-.03,0-.07,0-.1Z"/>
  <path d="m61.47,47.04c.18-1.17.26-2.37.56-3.51.4-1.5,1.96-2.69,3.18-2.62,1.49.08,2.8,1.15,3.11,2.84.32,1.75.54,3.54.6,5.33.07,2.14-1.66,4-3.78,3.93-.83-.03-1.81-.75-2.41-1.42-1.11-1.25-1.19-2.9-1.26-4.54Zm6.16.55c-.1-.05-.21-.09-.31-.14-.02-1.42-.21-2.8-1.25-3.86-.31-.32-.94-.66-1.27-.54-.42.15-.91.71-.97,1.15-.15,1.25-.18,2.54-.09,3.8.05.85.26,1.74.6,2.52.44,1.02,1.16,1.18,1.8.3.68-.94,1.01-2.14,1.5-3.22Z"/>
</svg>